HIERARCHY
ROOT YT_rig_v001:Root
{
	OFFSET -2.573863 99.078728 -1.032762
	CHANNELS 6 Xposition Yposition Zposition Xrotation Yrotation Zrotation
	JOINT YT_rig_v001:IKJnt_Grp
	{
		OFFSET 0.000000 0.000000 0.000000
		CHANNELS 6 Xposition Yposition Zposition Xrotation Yrotation Zrotation
		JOINT YT_rig_v001:IKLegFrontR01_jnt
		{
			OFFSET -6.500005 -3.255150 10.015763
			CHANNELS 6 Xposition Yposition Zposition Xrotation Yrotation Zrotation
			JOINT YT_rig_v001:IKLegFrontR02_jnt
			{
				OFFSET -9.719193 -0.000015 5.172733
				CHANNELS 6 Xposition Yposition Zposition Xrotation Yrotation Zrotation
				JOINT YT_rig_v001:IKLegFrontR03_jnt
				{
					OFFSET 0.000000 -19.999985 0.000074
					CHANNELS 6 Xposition Yposition Zposition Xrotation Yrotation Zrotation
					JOINT YT_rig_v001:IKLegFrontR04_jnt
					{
						OFFSET 0.000000 -21.000038 0.000074
						CHANNELS 6 Xposition Yposition Zposition Xrotation Yrotation Zrotation
						End Site
						{
							OFFSET 0.000000 21.000038 -0.000018
						}
					}
				}
			}
		}
		JOINT YT_rig_v001:IKLegBackR01_jnt
		{
			OFFSET -6.500001 -3.255150 -11.802598
			CHANNELS 6 Xposition Yposition Zposition Xrotation Yrotation Zrotation
			JOINT YT_rig_v001:IKLegBackR02_jnt
			{
				OFFSET -9.719196 -0.000031 -5.185904
				CHANNELS 6 Xposition Yposition Zposition Xrotation Yrotation Zrotation
				JOINT YT_rig_v001:IKLegBackR03_jnt
				{
					OFFSET 0.000000 -20.000000 -0.000360
					CHANNELS 6 Xposition Yposition Zposition Xrotation Yrotation Zrotation
					JOINT YT_rig_v001:IKLegBackR04_jnt
					{
						OFFSET 0.000000 -20.999943 0.000347
						CHANNELS 6 Xposition Yposition Zposition Xrotation Yrotation Zrotation
						End Site
						{
							OFFSET 0.000000 20.999943 -0.000370
						}
					}
				}
			}
		}
		JOINT YT_rig_v001:IKLegFrontL01_jnt
		{
			OFFSET 6.498628 -3.255157 10.007559
			CHANNELS 6 Xposition Yposition Zposition Xrotation Yrotation Zrotation
			JOINT YT_rig_v001:IKLegFrontL02_jnt
			{
				OFFSET 9.737183 -0.000008 5.180938
				CHANNELS 6 Xposition Yposition Zposition Xrotation Yrotation Zrotation
				JOINT YT_rig_v001:IKLegFrontL03_jnt
				{
					OFFSET 0.000000 -19.993607 -0.505187
					CHANNELS 6 Xposition Yposition Zposition Xrotation Yrotation Zrotation
					JOINT YT_rig_v001:IKLegFrontL04_jnt
					{
						OFFSET 0.000000 -20.999950 0.017213
						CHANNELS 6 Xposition Yposition Zposition Xrotation Yrotation Zrotation
						End Site
						{
							OFFSET 0.000000 20.999943 -0.017233
						}
					}
				}
			}
		}
		JOINT YT_rig_v001:IKLegBackL01_jnt
		{
			OFFSET 6.500279 -3.255180 -11.808104
			CHANNELS 6 Xposition Yposition Zposition Xrotation Yrotation Zrotation
			JOINT YT_rig_v001:IKLegBackL02_jnt
			{
				OFFSET 9.735531 0.000000 -5.180398
				CHANNELS 6 Xposition Yposition Zposition Xrotation Yrotation Zrotation
				JOINT YT_rig_v001:IKLegBackL03_jnt
				{
					OFFSET 0.000000 -20.000000 -0.000086
					CHANNELS 6 Xposition Yposition Zposition Xrotation Yrotation Zrotation
					JOINT YT_rig_v001:IKLegBackL04_jnt
					{
						OFFSET 0.000000 -20.999985 0.000101
						CHANNELS 6 Xposition Yposition Zposition Xrotation Yrotation Zrotation
						End Site
						{
							OFFSET 0.000000 20.999985 -0.000093
						}
					}
				}
			}
		}
	}
}
MOTION
Frames: 6
Frame Time: 0.016667
-2.573863 97.372627 72.171616 -0.000000 0.000000 -0.000000 0.000000 0.000000 0.000001 -0.000000 0.000000 -0.000000 -6.500005 -3.255150 10.015763 -0.000000 0.000000 -0.000000 -9.719192 -0.000020 5.172733 27.569644 -0.000000 0.000000 -0.000001 -19.999992 0.000076 -35.193035 0.000000 -0.000001 -0.000000 -21.000042 0.000074 0.000001 -0.000000 -0.000000 -6.500001 -3.255150 -11.802596 -0.000001 0.000000 -0.000000 -9.719195 -0.000028 -5.185900 23.601527 -0.000000 -0.000000 -0.000001 -20.000013 -0.000357 -44.672750 -0.000000 0.000001 0.000000 -20.999943 0.000342 0.000000 -0.000000 -0.000000 6.498628 -3.255157 10.007562 -0.000000 0.000000 -0.000000 9.737182 -0.000022 5.180941 4.558337 0.000000 -0.000000 -0.000002 -19.993603 -0.505184 -36.724797 0.000000 -0.000000 -0.000001 -20.999958 0.017216 0.000002 0.000000 -0.000000 6.500279 -3.255180 -11.808105 -0.000000 0.000000 -0.000000 9.735531 0.000006 -5.180396 17.062803 0.000000 -0.000000 -0.000001 -20.000000 -0.000090 -33.183306 0.000000 -0.000000 0.000000 -20.999992 0.000094 0.000001 0.000000 -0.000000 
-2.573863 97.301308 72.802689 0.081521 0.000000 -0.000000 0.000000 0.000000 0.000003 -0.000000 0.000000 -0.000000 -6.500005 -3.255150 10.015763 -0.000000 0.000000 -0.000000 -9.719192 -0.000002 5.172734 29.168675 -0.000000 0.000001 -0.000001 -19.999981 0.000076 -38.213341 0.000000 -0.000001 -0.000002 -21.000038 0.000072 -0.000000 -0.000000 -0.000000 -6.500000 -3.255150 -11.802598 -0.000000 -0.000000 -0.000000 -9.719196 -0.000028 -5.185902 22.718177 -0.000000 -0.000000 0.000003 -20.000011 -0.000352 -45.941048 -0.000000 0.000001 -0.000000 -20.999943 0.000348 0.000000 0.000000 -0.000000 6.498628 -3.255157 10.007554 -0.000000 0.000000 -0.000000 9.737182 -0.000016 5.180936 3.786943 0.000000 -0.000000 -0.000001 -19.993595 -0.505195 -35.305098 0.000000 0.000000 -0.000001 -20.999954 0.017213 0.000002 0.000000 0.000000 6.500279 -3.255180 -11.808103 -0.000000 0.000000 -0.000000 9.735531 0.000001 -5.180398 18.105629 0.000000 -0.000000 0.000000 -19.999994 -0.000084 -33.589877 0.000000 -0.000000 0.000002 -20.999981 0.000098 -0.000001 0.000000 0.000000 
-2.573863 97.190971 73.433762 0.221020 0.000000 -0.000000 0.000000 0.000000 0.000000 -0.000000 0.000000 -0.000000 -6.500005 -3.255150 10.015758 -0.000000 0.000000 -0.000000 -9.719192 -0.000006 5.172732 31.045498 -0.000000 0.000001 0.000001 -19.999992 0.000080 -42.064454 0.000000 -0.000001 0.000002 -21.000034 0.000078 0.000001 0.000000 0.000000 -6.500001 -3.255150 -11.802602 -0.000000 0.000000 -0.000000 -9.719196 -0.000022 -5.185900 21.719334 -0.000001 -0.000000 0.000003 -20.000008 -0.000355 -47.138202 -0.000000 0.000001 -0.000000 -20.999947 0.000348 0.000000 0.000000 0.000000 6.498628 -3.255157 10.007556 -0.000000 0.000000 -0.000000 9.737182 -0.000017 5.180937 3.153605 0.000001 -0.000000 -0.000003 -19.993595 -0.505194 -34.234189 -0.000000 0.000000 -0.000002 -20.999947 0.017209 0.000001 -0.000000 -0.000000 6.500279 -3.255188 -11.808106 -0.000000 0.000000 -0.000000 9.735531 0.000002 -5.180400 19.143731 0.000000 -0.000000 0.000000 -20.000000 -0.000088 -34.100232 0.000000 -0.000000 -0.000001 -20.999985 0.000107 -0.000000 0.000000 -0.000000 
-2.573863 97.009949 74.064835 0.441263 0.000000 -0.000000 0.000000 0.000000 0.000003 -0.000000 0.000000 -0.000000 -6.500005 -3.255150 10.015763 -0.000000 0.000000 -0.000000 -9.719192 -0.000012 5.172729 32.842589 -0.000000 0.000001 0.000001 -19.999996 0.000075 -45.852716 0.000000 -0.000001 0.000000 -21.000031 0.000073 -0.000001 0.000000 0.000000 -6.500000 -3.255157 -11.802593 -0.000000 -0.000000 -0.000000 -9.719198 -0.000025 -5.185906 20.665642 -0.000001 0.000000 0.000001 -20.000006 -0.000345 -48.437099 -0.000000 0.000001 -0.000000 -20.999943 0.000352 -0.000001 0.000000 -0.000000 6.498628 -3.255165 10.007561 -0.000000 0.000000 -0.000000 9.737182 -0.000015 5.180935 2.760057 0.000001 -0.000000 -0.000003 -19.993618 -0.505187 -33.888967 -0.000000 -0.000000 -0.000001 -20.999950 0.017210 0.000002 0.000000 0.000000 6.500279 -3.255188 -11.808102 -0.000000 0.000000 -0.000000 9.735531 0.000005 -5.180394 20.270306 0.000000 -0.000000 0.000000 -20.000004 -0.000084 -34.945396 0.000000 -0.000000 0.000000 -20.999985 0.000098 0.000001 0.000000 -0.000000 
-2.573863 96.809746 74.695908 0.684852 0.000000 -0.000000 0.000000 0.000008 0.000004 -0.000000 0.000000 -0.000000 -6.500005 -3.255150 10.015765 -0.000000 0.000000 -0.000000 -9.719192 -0.000022 5.172737 34.580981 0.000000 0.000001 -0.000002 -19.999979 0.000076 -49.635705 0.000000 -0.000001 -0.000000 -21.000031 0.000084 -0.000000 0.000000 0.000000 -6.500001 -3.255150 -11.802590 -0.000001 0.000000 -0.000000 -9.719196 -0.000009 -5.185900 19.500497 -0.000001 -0.000000 0.000001 -20.000002 -0.000363 -49.592586 -0.000000 0.000001 -0.000000 -20.999943 0.000352 0.000000 0.000000 0.000000 6.498628 -3.255157 10.007563 -0.000000 0.000000 -0.000000 9.737182 -0.000027 5.180934 2.585010 0.000001 -0.000000 -0.000003 -19.993603 -0.505191 -34.007604 0.000000 -0.000000 -0.000000 -20.999950 0.017201 0.000001 0.000000 0.000000 6.500279 -3.255188 -11.808096 -0.000000 0.000000 -0.000000 9.735531 0.000008 -5.180394 21.381393 0.000000 -0.000000 0.000000 -20.000000 -0.000082 -35.802667 0.000000 -0.000000 0.000000 -20.999981 0.000099 -0.000000 0.000000 -0.000000 
-2.573863 96.622345 75.326981 0.913143 0.000000 -0.000000 0.000000 -0.000000 0.000002 -0.000000 0.000000 -0.000000 -6.500005 -3.255150 10.015758 -0.000000 0.000000 -0.000000 -9.719192 -0.000004 5.172724 36.218891 0.000000 0.000001 -0.000001 -19.999977 0.000076 -53.282838 0.000000 -0.000001 0.000002 -21.000034 0.000074 -0.000002 -0.000000 -0.000000 -6.500001 -3.255150 -11.802596 -0.000001 0.000000 -0.000000 -9.719196 -0.000029 -5.185908 18.180907 -0.000001 -0.000000 0.000001 -20.000006 -0.000358 -50.462032 -0.000000 0.000001 0.000000 -20.999947 0.000351 0.000002 -0.000000 -0.000000 6.498628 -3.255157 10.007562 -0.000000 0.000000 -0.000000 9.737182 -0.000019 5.180936 2.610946 0.000001 -0.000000 -0.000002 -19.993612 -0.505189 -34.502987 -0.000000 -0.000000 -0.000002 -20.999950 0.017216 0.000001 -0.000000 0.000000 6.500279 -3.255188 -11.808098 -0.000000 0.000000 -0.000000 9.735531 0.000011 -5.180396 22.417832 0.000000 -0.000000 0.000001 -19.999992 -0.000088 -36.472008 0.000000 -0.000000 0.000000 -20.999989 0.000102 -0.000000 0.000000 -0.000000 
